<svg width="47" height="46" viewBox="0 0 47 46" fill="none" xmlns="http://www.w3.org/2000/svg">
<path d="M23.0049 9.43529C15.6983 9.43529 9.75391 15.3413 9.75391 22.6008C9.75391 24.9964 10.4078 27.3412 11.644 29.3816L11.8926 29.791L10.6972 35.2555L15.9418 33.7532L16.3879 34.0086C18.3904 35.1573 20.6789 35.7647 23.0049 35.7647C30.3115 35.7647 36.2559 29.8586 36.2559 22.5991C36.2559 15.3397 30.3115 9.43359 23.0049 9.43359V9.43529ZM30.3575 28.7031C30.3575 28.7031 29.1281 30.3374 26.533 29.9889C21.801 29.3528 18.3887 25.3686 18.3887 25.3686C18.3887 25.3686 13.7707 20.9733 15.448 17.0957C16.4816 15.2923 17.3738 15.2855 17.3738 15.2855H18.467C18.7735 15.2855 18.9608 15.6222 18.9608 15.6222C18.9608 15.6222 20.2464 18.5405 20.4184 18.9313C20.5904 19.3221 20.3656 19.7062 20.3656 19.7062L19.1941 21.1797C19.1941 21.1797 19.0715 21.3624 19.1941 21.5925C21.1063 25.1791 24.6583 26.3228 24.6583 26.3228C24.6583 26.3228 25.1334 26.5613 25.399 26.2703C25.5863 26.0656 26.1942 25.147 26.6216 24.5938C26.7953 24.3671 27.1069 24.296 27.364 24.4229C28.2188 24.8475 30.068 25.756 30.6946 25.9861C31.5205 26.2906 30.6691 28.4155 30.3558 28.6998L30.3575 28.7031Z" fill="white"/>
<path d="M23.0045 0C10.2984 0 0 10.232 0 22.8562C0 35.4803 10.2984 45.7123 23.0045 45.7123C35.7106 45.7123 46.0089 35.4803 46.0089 22.8562C46.0089 10.232 35.7089 0 23.0045 0ZM34.0844 33.6092C31.125 36.5495 27.1899 38.1686 23.0045 38.1686C20.4282 38.1686 17.891 37.5392 15.6332 36.3415L7.47006 38.6795L9.32438 30.2002C8.02006 27.8859 7.33384 25.2687 7.33384 22.599C7.33384 18.4406 8.9634 14.5308 11.9228 11.5905C14.8822 8.65015 18.8173 7.0311 23.0028 7.0311C27.1882 7.0311 31.1233 8.65015 34.0827 11.5905C37.0421 14.5308 38.6717 18.4406 38.6717 22.599C38.6717 26.7574 37.0421 30.6672 34.0827 33.6075L34.0844 33.6092Z" fill="white"/>
</svg>
