<svg width="46" height="46" viewBox="0 0 46 46" fill="none" xmlns="http://www.w3.org/2000/svg">
<path d="M23 0C10.2981 0 0 10.2964 0 23C0 35.7036 10.2964 46 23 46C35.7036 46 46 35.7036 46 23C46 10.2964 35.7019 0 23 0ZM33.7509 15.5246L31.0798 32.6375C30.8312 34.2327 28.9858 35.0039 27.6766 34.0591L20.1144 28.6112C19.5713 28.2197 19.5151 27.4315 19.9986 26.9684L27.5898 19.6939C28.0086 19.2921 27.4791 18.6315 26.9956 18.955L16.7265 25.8158C16.0353 26.2772 15.1807 26.4219 14.3771 26.2142L9.37535 24.917C8.60755 24.7178 8.52923 23.6571 9.25958 23.3473L31.6246 13.8664C32.738 13.3948 33.9382 14.3295 33.7509 15.5246Z" fill="#F15F79"/>
</svg>
