<svg width="47" height="46" viewBox="0 0 47 46" fill="none" xmlns="http://www.w3.org/2000/svg">
<path d="M23.0049 9.43516C15.6983 9.43516 9.75391 15.3412 9.75391 22.6007C9.75391 24.9963 10.4078 27.3411 11.644 29.3814L11.8926 29.7908L10.6972 35.2553L15.9418 33.753L16.3879 34.0085C18.3904 35.1572 20.6789 35.7646 23.0049 35.7646C30.3115 35.7646 36.2559 29.8585 36.2559 22.599C36.2559 15.3395 30.3115 9.43347 23.0049 9.43347V9.43516ZM30.3575 28.703C30.3575 28.703 29.1281 30.3373 26.533 29.9888C21.801 29.3527 18.3887 25.3685 18.3887 25.3685C18.3887 25.3685 13.7707 20.9732 15.448 17.0956C16.4816 15.2922 17.3738 15.2854 17.3738 15.2854H18.467C18.7735 15.2854 18.9608 15.6221 18.9608 15.6221C18.9608 15.6221 20.2464 18.5404 20.4184 18.9312C20.5904 19.322 20.3656 19.7061 20.3656 19.7061L19.1941 21.1796C19.1941 21.1796 19.0715 21.3623 19.1941 21.5924C21.1063 25.179 24.6583 26.3227 24.6583 26.3227C24.6583 26.3227 25.1334 26.5612 25.399 26.2702C25.5863 26.0655 26.1942 25.1469 26.6216 24.5936C26.7953 24.3669 27.1069 24.2959 27.364 24.4228C28.2188 24.8474 30.068 25.7559 30.6946 25.986C31.5205 26.2905 30.6691 28.4154 30.3558 28.6996L30.3575 28.703Z" fill="#F15F79"/>
<path d="M23.0045 0C10.2984 0 0 10.232 0 22.8562C0 35.4803 10.2984 45.7123 23.0045 45.7123C35.7106 45.7123 46.0089 35.4803 46.0089 22.8562C46.0089 10.232 35.7089 0 23.0045 0ZM34.0844 33.6092C31.125 36.5495 27.1899 38.1686 23.0045 38.1686C20.4282 38.1686 17.891 37.5392 15.6332 36.3415L7.47006 38.6795L9.32438 30.2002C8.02006 27.8859 7.33384 25.2687 7.33384 22.599C7.33384 18.4406 8.9634 14.5308 11.9228 11.5905C14.8822 8.65015 18.8173 7.0311 23.0028 7.0311C27.1882 7.0311 31.1233 8.65015 34.0827 11.5905C37.0421 14.5308 38.6717 18.4406 38.6717 22.599C38.6717 26.7574 37.0421 30.6672 34.0827 33.6075L34.0844 33.6092Z" fill="#F15F79"/>
</svg>
