<svg width="225" height="65" viewBox="0 0 225 65" fill="none" xmlns="http://www.w3.org/2000/svg">
<rect width="225" height="65" rx="32.5" fill="#F15F79"/>
<path d="M42.6661 38.66C46.1381 38.66 48.6981 36.228 48.6981 32.9C48.6981 29.572 46.1381 27.14 42.6661 27.14C39.1941 27.14 36.6341 29.588 36.6341 32.9C36.6341 36.212 39.1941 38.66 42.6661 38.66ZM42.6661 36.836C40.4101 36.836 38.7301 35.188 38.7301 32.9C38.7301 30.612 40.4101 28.964 42.6661 28.964C44.9221 28.964 46.6021 30.612 46.6021 32.9C46.6021 35.188 44.9221 36.836 42.6661 36.836ZM55.3977 30.372C54.0857 30.372 52.9657 30.9 52.2137 31.812C52.3897 29.956 53.3657 28.996 55.4297 28.564L59.0297 27.828L58.7417 26.036L54.7737 26.884C51.7337 27.524 50.2937 29.524 50.2937 32.948C50.2937 36.676 52.0217 38.66 54.9497 38.66C57.6377 38.66 59.5097 36.98 59.5097 34.468C59.5097 32.052 57.8457 30.372 55.3977 30.372ZM54.9977 37.044C53.5257 37.044 52.5017 36.004 52.5017 34.516C52.5017 33.028 53.5097 32.068 54.9977 32.068C56.4697 32.068 57.4617 33.028 57.4617 34.516C57.4617 35.988 56.4697 37.044 54.9977 37.044ZM66.1816 29.86C65.0136 29.86 64.0216 30.26 63.3496 31.076V29.956H61.4456V41.604H63.4456V37.46C64.1336 38.244 65.0936 38.612 66.1816 38.612C68.6776 38.612 70.5176 36.884 70.5176 34.228C70.5176 31.588 68.6776 29.86 66.1816 29.86ZM65.9576 36.9C64.5176 36.9 63.4136 35.86 63.4136 34.228C63.4136 32.596 64.5176 31.556 65.9576 31.556C67.3976 31.556 68.4856 32.596 68.4856 34.228C68.4856 35.86 67.3976 36.9 65.9576 36.9ZM75.5827 29.86C74.2067 29.86 72.8787 30.212 71.9667 30.916L72.7507 32.372C73.3907 31.844 74.3827 31.524 75.3427 31.524C76.7667 31.524 77.4707 32.212 77.4707 33.38V33.508H75.2627C72.6707 33.508 71.7107 34.628 71.7107 36.052C71.7107 37.54 72.9427 38.612 74.8947 38.612C76.1747 38.612 77.1027 38.196 77.5827 37.46V38.5H79.4707V33.492C79.4707 31.028 78.0467 29.86 75.5827 29.86ZM75.3107 37.156C74.2867 37.156 73.6787 36.692 73.6787 35.972C73.6787 35.348 74.0467 34.836 75.4067 34.836H77.4707V35.828C77.1347 36.708 76.2867 37.156 75.3107 37.156ZM88.7136 29.956H80.7136V31.652H83.7216V38.5H85.7216V31.652H88.7136V29.956ZM90.1643 38.5H92.1643V35.124H96.4683V38.5H98.4683V29.956H96.4683V33.428H92.1643V29.956H90.1643V38.5ZM105.309 32.772L103.149 32.756V29.956H101.149V38.5L105.021 38.516C107.357 38.532 108.669 37.46 108.669 35.588C108.669 33.812 107.501 32.772 105.309 32.772ZM109.773 38.5H111.773V29.956H109.773V38.5ZM104.845 37.044L103.149 37.028V34.132L104.845 34.148C106.029 34.164 106.653 34.58 106.653 35.556C106.653 36.548 106.013 37.06 104.845 37.044ZM118.605 28.948C120.317 28.948 121.261 28.148 121.293 26.596H119.933C119.917 27.364 119.405 27.844 118.589 27.844C117.757 27.844 117.277 27.364 117.261 26.596H115.933C115.949 28.148 116.893 28.948 118.605 28.948ZM114.461 38.5H116.301L121.005 32.868V38.5H123.005V29.956H121.181L116.461 35.588V29.956H114.461V38.5ZM135.221 34.052C136.101 33.7 136.661 33.012 136.661 32.18C136.661 30.772 135.061 29.828 132.869 29.828C131.749 29.828 130.645 30.068 129.477 30.612L129.989 32.084C130.933 31.668 131.829 31.46 132.693 31.46C133.893 31.46 134.613 31.844 134.613 32.468C134.613 33.092 134.021 33.444 133.013 33.444H131.509V34.788H133.173C134.245 34.788 134.853 35.156 134.853 35.828C134.853 36.564 134.037 36.996 132.709 36.996C131.653 36.996 130.565 36.724 129.733 36.26L129.157 37.748C130.181 38.324 131.493 38.644 132.805 38.644C135.189 38.644 136.901 37.572 136.901 35.988C136.901 35.044 136.277 34.356 135.221 34.052ZM145.153 34.052C145.969 33.7 146.465 33.044 146.465 32.164C146.465 30.756 145.217 29.956 143.137 29.956H138.961V38.5H143.313C145.617 38.5 146.737 37.604 146.737 36.1C146.737 35.06 146.209 34.372 145.153 34.052ZM140.865 31.412H142.961C143.985 31.412 144.513 31.748 144.513 32.452C144.513 33.156 143.985 33.524 142.961 33.524H140.865V31.412ZM143.153 37.044H140.865V34.852H143.217C144.305 34.852 144.801 35.22 144.801 35.972C144.801 36.708 144.225 37.044 143.153 37.044ZM152.675 38.612C155.331 38.612 157.235 36.788 157.235 34.228C157.235 31.668 155.331 29.86 152.675 29.86C150.051 29.86 148.131 31.668 148.131 34.228C148.131 36.788 150.051 38.612 152.675 38.612ZM152.675 36.9C151.235 36.9 150.147 35.86 150.147 34.228C150.147 32.596 151.235 31.556 152.675 31.556C154.131 31.556 155.219 32.596 155.219 34.228C155.219 35.86 154.131 36.9 152.675 36.9ZM159.211 38.5H161.211V35.124H165.515V38.5H167.515V29.956H165.515V33.428H161.211V29.956H159.211V38.5ZM174.004 38.612C176.66 38.612 178.564 36.788 178.564 34.228C178.564 31.668 176.66 29.86 174.004 29.86C171.38 29.86 169.46 31.668 169.46 34.228C169.46 36.788 171.38 38.612 174.004 38.612ZM174.004 36.9C172.564 36.9 171.476 35.86 171.476 34.228C171.476 32.596 172.564 31.556 174.004 31.556C175.46 31.556 176.548 32.596 176.548 34.228C176.548 35.86 175.46 36.9 174.004 36.9ZM186.667 38.5H189.019L185.707 34.068L188.811 29.956H186.667L184.139 33.412H182.539V29.956H180.539V38.5H182.539V35.076H184.091L186.667 38.5Z" fill="white"/>
</svg>
