<svg width="844" height="35" viewBox="0 0 844 35" fill="none" xmlns="http://www.w3.org/2000/svg">
<path d="M131.586 33.8588L148.006 14.5988C148.156 14.4188 148.386 14.3188 148.616 14.3188H843.5C843.95 14.3188 844.31 13.9588 844.31 13.5088V11.1188C844.31 10.6688 843.95 10.3088 843.5 10.3088H146.776C146.536 10.3088 146.316 10.4088 146.166 10.5888L131.836 27.3988C131.496 27.7988 130.876 27.7688 130.576 27.3488L110.766 0.328823C110.466 -0.0811766 109.866 -0.111177 109.516 0.258823L100.556 10.0488C100.406 10.2188 100.186 10.3088 99.9659 10.3088H42.3959C41.9459 10.3088 41.5859 10.6688 41.5859 11.1188V13.5088C41.5859 13.9588 41.9459 14.3188 42.3959 14.3188H101.726C101.956 14.3188 102.166 14.2188 102.316 14.0588L109.166 6.56882C109.506 6.18882 110.106 6.22882 110.416 6.63882L130.316 33.8188C130.626 34.2388 131.246 34.2588 131.576 33.8688L131.586 33.8588Z" fill="#1D2931"/>
<path d="M13.7256 10.319H32.2056C32.653 10.319 33.0156 10.6816 33.0156 11.129V13.509C33.0156 13.9563 32.653 14.319 32.2056 14.319H13.7256C13.2783 14.319 12.9156 13.9563 12.9156 13.509V11.129C12.9156 10.6816 13.2783 10.319 13.7256 10.319Z" fill="#1D2931"/>
<path d="M0.825638 10.319H3.20563C3.65298 10.319 4.01562 10.6816 4.01562 11.129V13.509C4.01562 13.9563 3.65298 14.319 3.20563 14.319H0.825638C0.378287 14.319 0.015625 13.9563 0.015625 13.509V11.129C0.015625 10.6816 0.378287 10.319 0.825638 10.319Z" fill="#1D2931"/>
</svg>
