<svg width="258" height="35" viewBox="0 0 258 35" fill="none" xmlns="http://www.w3.org/2000/svg">
<path d="M126.109 33.8587L109.689 14.5987C109.539 14.4187 109.309 14.3187 109.079 14.3187H0.81C0.36 14.3187 0 13.9587 0 13.5087V11.1187C0 10.6687 0.36 10.3087 0.81 10.3087H110.919C111.159 10.3087 111.379 10.4087 111.529 10.5887L125.859 27.3987C126.199 27.7987 126.819 27.7687 127.119 27.3487L146.929 0.328701C147.229 -0.0812987 147.829 -0.111299 148.179 0.258701L157.139 10.0487C157.289 10.2187 157.509 10.3087 157.729 10.3087H215.299C215.749 10.3087 216.109 10.6687 216.109 11.1187V13.5087C216.109 13.9587 215.749 14.3187 215.299 14.3187H155.969C155.739 14.3187 155.529 14.2187 155.379 14.0587L148.529 6.5687C148.189 6.1887 147.589 6.2287 147.279 6.6387L127.379 33.8187C127.069 34.2387 126.449 34.2587 126.119 33.8687L126.109 33.8587Z" fill="#F15F79"/>
<path d="M244.29 10.3187H225.81C225.363 10.3187 225 10.6814 225 11.1287V13.5087C225 13.9561 225.363 14.3187 225.81 14.3187H244.29C244.737 14.3187 245.1 13.9561 245.1 13.5087V11.1287C245.1 10.6814 244.737 10.3187 244.29 10.3187Z" fill="#F15F79"/>
<path d="M257.19 10.3187H254.81C254.363 10.3187 254 10.6814 254 11.1287V13.5087C254 13.9561 254.363 14.3187 254.81 14.3187H257.19C257.637 14.3187 258 13.9561 258 13.5087V11.1287C258 10.6814 257.637 10.3187 257.19 10.3187Z" fill="#F15F79"/>
</svg>
