<svg width="642" height="35" viewBox="0 0 642 35" fill="none" xmlns="http://www.w3.org/2000/svg">
<path d="M510.109 33.8587L493.689 14.5987C493.539 14.4187 493.309 14.3187 493.079 14.3187H0.81C0.36 14.3187 0 13.9587 0 13.5087V11.1187C0 10.6687 0.36 10.3087 0.81 10.3087H494.919C495.159 10.3087 495.379 10.4087 495.529 10.5887L509.859 27.3987C510.199 27.7987 510.819 27.7687 511.119 27.3487L530.929 0.328701C531.229 -0.0812987 531.829 -0.111299 532.179 0.258701L541.139 10.0487C541.289 10.2187 541.509 10.3087 541.729 10.3087H599.299C599.749 10.3087 600.109 10.6687 600.109 11.1187V13.5087C600.109 13.9587 599.749 14.3187 599.299 14.3187H539.969C539.74 14.3187 539.529 14.2187 539.379 14.0587L532.529 6.5687C532.189 6.1887 531.589 6.2287 531.279 6.6387L511.379 33.8187C511.069 34.2387 510.449 34.2587 510.119 33.8687L510.109 33.8587Z" fill="#F15F79"/>
<path d="M628.29 10.3187H609.81C609.362 10.3187 609 10.6814 609 11.1287V13.5087C609 13.9561 609.362 14.3187 609.81 14.3187H628.29C628.737 14.3187 629.1 13.9561 629.1 13.5087V11.1287C629.1 10.6814 628.737 10.3187 628.29 10.3187Z" fill="#F15F79"/>
<path d="M641.189 10.3187H638.81C638.362 10.3187 638 10.6814 638 11.1287V13.5087C638 13.9561 638.362 14.3187 638.81 14.3187H641.189C641.637 14.3187 642 13.9561 642 13.5087V11.1287C642 10.6814 641.637 10.3187 641.189 10.3187Z" fill="#F15F79"/>
</svg>
