<svg width="71" height="71" viewBox="0 0 71 71" fill="none" xmlns="http://www.w3.org/2000/svg">
<path d="M70.0395 65.4017L49.7153 45.0774C53.586 40.1851 55.6871 34.1766 55.6871 27.8435C55.6871 20.4066 52.7912 13.4143 47.532 8.15507C42.2728 2.89585 35.2805 0 27.8436 0C20.4834 0 13.4455 2.9003 8.22414 8.08726C2.89823 13.3765 -0.0254016 20.4344 0.000166289 27.9402C0.0246225 35.3005 2.95048 42.3272 8.15522 47.5319C13.36 52.7367 20.4067 55.687 27.8436 55.687C34.1767 55.687 40.1851 53.586 45.0775 49.7152L65.4017 70.0395C66.6824 71.3202 68.7589 71.3202 70.0395 70.0395C71.3202 68.7589 71.3202 66.6824 70.0395 65.4017ZM12.793 42.8941C4.49456 34.5957 4.49456 21.0925 12.793 12.7929C21.0915 4.4944 34.5946 4.4944 42.8942 12.7929C51.1927 21.0913 51.1927 34.5946 42.8942 42.8941C34.5958 51.1926 21.0926 51.1926 12.793 42.8941Z" fill="white"/>
</svg>
