<svg width="126" height="21" viewBox="0 0 126 21" fill="none" xmlns="http://www.w3.org/2000/svg">
<path d="M46.9081 20.3047L37.0612 8.75468C36.9712 8.64674 36.8333 8.58677 36.6954 8.58677H0.49942C0.22956 8.58677 0.0136719 8.37088 0.0136719 8.10102V6.66776C0.0136719 6.3979 0.22956 6.18201 0.49942 6.18201H37.7988C37.9427 6.18201 38.0746 6.24198 38.1646 6.34993L46.7581 16.4307C46.962 16.6706 47.3339 16.6526 47.5138 16.4007L59.3936 0.197119C59.5735 -0.0487539 59.9333 -0.0667446 60.1432 0.15514L65.5164 6.02609C65.6063 6.12804 65.7383 6.18201 65.8702 6.18201H100.394C100.664 6.18201 100.88 6.3979 100.88 6.66776V8.10102C100.88 8.37088 100.664 8.58677 100.394 8.58677H64.8148C64.6769 8.58677 64.5509 8.5268 64.461 8.43085L60.3531 3.93918C60.1492 3.7113 59.7894 3.73528 59.6035 3.98116L47.6697 20.2807C47.4838 20.5326 47.112 20.5446 46.9141 20.3107L46.9081 20.3047Z" fill="#F15F79"/>
<path d="M117.569 6.18799H106.487C106.218 6.18799 106.001 6.40547 106.001 6.67374V8.101C106.001 8.36927 106.218 8.58674 106.487 8.58674H117.569C117.837 8.58674 118.055 8.36927 118.055 8.101V6.67374C118.055 6.40547 117.837 6.18799 117.569 6.18799Z" fill="#F15F79"/>
<path d="M125.305 6.18799H123.878C123.61 6.18799 123.392 6.40547 123.392 6.67374V8.101C123.392 8.36927 123.61 8.58674 123.878 8.58674H125.305C125.573 8.58674 125.791 8.36927 125.791 8.101V6.67374C125.791 6.40547 125.573 6.18799 125.305 6.18799Z" fill="#F15F79"/>
</svg>
