<svg width="162" height="35" viewBox="0 0 162 35" fill="none" xmlns="http://www.w3.org/2000/svg">
<path d="M50.1094 33.8587L33.6895 14.5987C33.5395 14.4187 33.3095 14.3187 33.0795 14.3187H0.81C0.36 14.3187 0 13.9587 0 13.5087V11.1187C0 10.6687 0.36 10.3087 0.81 10.3087H34.9194C35.1594 10.3087 35.3794 10.4087 35.5294 10.5887L49.8594 27.3987C50.1994 27.7987 50.8194 27.7687 51.1194 27.3487L70.9294 0.328701C71.2294 -0.0812987 71.8294 -0.111299 72.1794 0.258701L81.1394 10.0487C81.2894 10.2187 81.5094 10.3087 81.7294 10.3087H119.299C119.749 10.3087 120.109 10.6687 120.109 11.1187V13.5087C120.109 13.9587 119.749 14.3187 119.299 14.3187H79.9695C79.7395 14.3187 79.5295 14.2187 79.3795 14.0587L72.5294 6.5687C72.1894 6.1887 71.5894 6.2287 71.2794 6.6387L51.3795 33.8187C51.0695 34.2387 50.4494 34.2587 50.1194 33.8687L50.1094 33.8587Z" fill="#F15F79"/>
<path d="M148.29 10.3188H129.81C129.363 10.3188 129 10.6815 129 11.1288V13.5088C129 13.9562 129.363 14.3188 129.81 14.3188H148.29C148.737 14.3188 149.1 13.9562 149.1 13.5088V11.1288C149.1 10.6815 148.737 10.3188 148.29 10.3188Z" fill="#F15F79"/>
<path d="M161.19 10.3188H158.81C158.363 10.3188 158 10.6815 158 11.1288V13.5088C158 13.9562 158.363 14.3188 158.81 14.3188H161.19C161.637 14.3188 162 13.9562 162 13.5088V11.1288C162 10.6815 161.637 10.3188 161.19 10.3188Z" fill="#F15F79"/>
</svg>
