<svg width="126" height="21" viewBox="0 0 126 21" fill="none" xmlns="http://www.w3.org/2000/svg">
<path d="M46.8944 20.3047L37.0475 8.75468C36.9576 8.64674 36.8196 8.58677 36.6817 8.58677H0.485748C0.215888 8.58677 0 8.37088 0 8.10102V6.66776C0 6.3979 0.215888 6.18201 0.485748 6.18201H37.7851C37.929 6.18201 38.061 6.24198 38.1509 6.34993L46.7445 16.4307C46.9484 16.6706 47.3202 16.6526 47.5001 16.4007L59.3799 0.197119C59.5598 -0.0487539 59.9196 -0.0667446 60.1295 0.15514L65.5027 6.02609C65.5927 6.12804 65.7246 6.18201 65.8565 6.18201H100.381C100.651 6.18201 100.866 6.3979 100.866 6.66776V8.10102C100.866 8.37088 100.651 8.58677 100.381 8.58677H64.8011C64.6632 8.58677 64.5372 8.5268 64.4473 8.43085L60.3394 3.93918C60.1355 3.7113 59.7757 3.73528 59.5898 3.98116L47.656 20.2807C47.4701 20.5326 47.0983 20.5446 46.9004 20.3107L46.8944 20.3047Z" fill="#F15F79"/>
<path d="M117.555 6.18799H106.473C106.205 6.18799 105.987 6.40547 105.987 6.67374V8.101C105.987 8.36927 106.205 8.58674 106.473 8.58674H117.555C117.824 8.58674 118.041 8.36927 118.041 8.101V6.67374C118.041 6.40547 117.824 6.18799 117.555 6.18799Z" fill="#F15F79"/>
<path d="M125.291 6.18799H123.864C123.596 6.18799 123.378 6.40547 123.378 6.67374V8.101C123.378 8.36927 123.596 8.58674 123.864 8.58674H125.291C125.56 8.58674 125.777 8.36927 125.777 8.101V6.67374C125.777 6.40547 125.56 6.18799 125.291 6.18799Z" fill="#F15F79"/>
</svg>
