<svg width="490" height="35" viewBox="0 0 490 35" fill="none" xmlns="http://www.w3.org/2000/svg">
<path d="M111.891 33.8587L128.311 14.5987C128.461 14.4187 128.691 14.3187 128.921 14.3187H489.19C489.64 14.3187 490 13.9587 490 13.5087V11.1187C490 10.6687 489.64 10.3087 489.19 10.3087H127.081C126.841 10.3087 126.621 10.4087 126.471 10.5887L112.141 27.3987C111.801 27.7987 111.181 27.7687 110.881 27.3487L91.0706 0.328701C90.7706 -0.0812987 90.1706 -0.111299 89.8206 0.258701L80.8606 10.0487C80.7106 10.2187 80.4906 10.3087 80.2706 10.3087H42.7006C42.2505 10.3087 41.8906 10.6687 41.8906 11.1187V13.5087C41.8906 13.9587 42.2505 14.3187 42.7006 14.3187H82.0305C82.2605 14.3187 82.4706 14.2187 82.6205 14.0587L89.4706 6.5687C89.8106 6.1887 90.4106 6.2287 90.7206 6.6387L110.621 33.8187C110.931 34.2387 111.551 34.2587 111.881 33.8687L111.891 33.8587Z" fill="#F15F79"/>
<path d="M13.71 10.3188H32.19C32.6374 10.3188 33 10.6815 33 11.1288V13.5088C33 13.9562 32.6374 14.3188 32.19 14.3188H13.71C13.2627 14.3188 12.9 13.9562 12.9 13.5088V11.1288C12.9 10.6815 13.2627 10.3188 13.71 10.3188Z" fill="#F15F79"/>
<path d="M0.810013 10.3188H3.19C3.63735 10.3188 4 10.6815 4 11.1288V13.5088C4 13.9562 3.63735 14.3188 3.19 14.3188H0.810013C0.362662 14.3188 0 13.9562 0 13.5088V11.1288C0 10.6815 0.362662 10.3188 0.810013 10.3188Z" fill="#F15F79"/>
</svg>
