<svg width="1248" height="35" viewBox="0 0 1248 35" fill="none" xmlns="http://www.w3.org/2000/svg">
<path d="M131.891 33.8587L148.311 14.5987C148.461 14.4187 148.691 14.3187 148.921 14.3187H1247.19C1247.64 14.3187 1248 13.9587 1248 13.5087V11.1187C1248 10.6687 1247.64 10.3087 1247.19 10.3087H147.081C146.841 10.3087 146.621 10.4087 146.471 10.5887L132.141 27.3987C131.801 27.7987 131.181 27.7687 130.881 27.3487L111.071 0.328701C110.771 -0.0812987 110.171 -0.111299 109.821 0.258701L100.861 10.0487C100.711 10.2187 100.49 10.3087 100.271 10.3087H42.7006C42.2506 10.3087 41.8906 10.6687 41.8906 11.1187V13.5087C41.8906 13.9587 42.2506 14.3187 42.7006 14.3187H102.031C102.26 14.3187 102.471 14.2187 102.621 14.0587L109.471 6.5687C109.811 6.1887 110.411 6.2287 110.721 6.6387L130.621 33.8187C130.931 34.2387 131.551 34.2587 131.881 33.8687L131.891 33.8587Z" fill="#F15F79"/>
<path d="M13.7105 10.3188H32.1905C32.6378 10.3188 33.0005 10.6815 33.0005 11.1288V13.5088C33.0005 13.9562 32.6378 14.3188 32.1905 14.3188H13.7105C13.2631 14.3188 12.9005 13.9562 12.9005 13.5088V11.1288C12.9005 10.6815 13.2631 10.3188 13.7105 10.3188Z" fill="#F15F79"/>
<path d="M0.810501 10.3188H3.19049C3.63784 10.3188 4.00049 10.6815 4.00049 11.1288V13.5088C4.00049 13.9562 3.63784 14.3188 3.19049 14.3188H0.810501C0.36315 14.3188 0.000488281 13.9562 0.000488281 13.5088V11.1288C0.000488281 10.6815 0.36315 10.3188 0.810501 10.3188Z" fill="#F15F79"/>
</svg>
