<svg width="35" height="194" viewBox="0 0 35 194" fill="none" xmlns="http://www.w3.org/2000/svg">
<path d="M33.8587 101.19L14.5987 117.61C14.4187 117.76 14.3187 117.99 14.3187 118.22L14.3187 152.19C14.3187 152.64 13.9587 153 13.5087 153L11.1187 153C10.6687 153 10.3087 152.64 10.3087 152.19L10.3087 116.38C10.3087 116.14 10.4087 115.92 10.5887 115.77L27.3987 101.44C27.7987 101.1 27.7687 100.48 27.3487 100.18L0.328698 80.3704C-0.0813019 80.0704 -0.111302 79.4704 0.258698 79.1204L10.0487 70.1605C10.2187 70.0105 10.3087 69.7904 10.3087 69.5704L10.3087 42.0004C10.3087 41.5504 10.6687 41.1904 11.1187 41.1904L13.5087 41.1904C13.9587 41.1904 14.3187 41.5504 14.3187 42.0004L14.3187 71.3304C14.3187 71.5604 14.2187 71.7704 14.0587 71.9204L6.5687 78.7704C6.1887 79.1104 6.2287 79.7104 6.6387 80.0204L33.8187 99.9204C34.2387 100.23 34.2587 100.85 33.8687 101.18L33.8587 101.19Z" fill="#1D2931"/>
<path d="M10.3188 13.71L10.3188 32.19C10.3188 32.6374 10.6815 33 11.1288 33L13.5088 33C13.9562 33 14.3188 32.6374 14.3188 32.19L14.3188 13.71C14.3188 13.2627 13.9562 12.9 13.5088 12.9L11.1288 12.9C10.6815 12.9 10.3188 13.2627 10.3188 13.71Z" fill="#1D2931"/>
<path d="M14.3189 180.29L14.3188 161.81C14.3188 161.363 13.9562 161 13.5088 161L11.1288 161C10.6815 161 10.3188 161.363 10.3188 161.81L10.3189 180.29C10.3189 180.737 10.6815 181.1 11.1288 181.1L13.5088 181.1C13.9562 181.1 14.3189 180.737 14.3189 180.29Z" fill="#1D2931"/>
<path d="M10.3188 0.810013L10.3188 3.19C10.3188 3.63735 10.6815 4 11.1288 4L13.5088 4C13.9562 4 14.3188 3.63735 14.3188 3.19L14.3188 0.810013C14.3188 0.362662 13.9562 -1.58994e-07 13.5088 -1.39439e-07L11.1288 -3.54062e-08C10.6815 -1.58519e-08 10.3188 0.362662 10.3188 0.810013Z" fill="#1D2931"/>
<path d="M14.3188 193.19L14.3188 190.81C14.3188 190.363 13.9562 190 13.5088 190L11.1288 190C10.6815 190 10.3188 190.363 10.3188 190.81L10.3188 193.19C10.3188 193.637 10.6815 194 11.1288 194L13.5088 194C13.9562 194 14.3188 193.637 14.3188 193.19Z" fill="#1D2931"/>
</svg>
