<svg width="37" height="37" viewBox="0 0 37 37" fill="none" xmlns="http://www.w3.org/2000/svg">
<path d="M0.656479 36.7954L2.78655 26.9919C1.29022 24.3181 0.5 21.2922 0.5 18.2056C0.5 13.3978 2.37188 8.87751 5.77139 5.478C9.17286 2.07653 13.6932 0.204651 18.501 0.204651C23.3088 0.204651 27.8291 2.07653 31.2286 5.47604C34.6281 8.87556 36.5 13.3958 36.5 18.2037C36.5 23.0115 34.6281 27.5318 31.2286 30.9313C27.8291 34.3308 23.3088 36.2027 18.501 36.2027C15.5416 36.2027 12.6271 35.4751 10.0335 34.0902L0.656479 36.7954ZM10.3856 31.0976L10.898 31.3929C13.1983 32.721 15.8271 33.4232 18.499 33.4232C26.8922 33.4232 33.7205 26.5949 33.7205 18.2017C33.7205 9.80856 26.8922 2.98411 18.501 2.98411C10.1098 2.98411 3.27946 9.81247 3.27946 18.2056C3.27946 20.9753 4.03056 23.6863 5.45061 26.0452L5.73619 26.5186L4.36308 32.8364L10.3875 31.0995L10.3856 31.0976Z" fill="#1D2931"/>
<path d="M23.5085 20.3142C23.2132 20.1675 22.8552 20.2496 22.6557 20.5117C22.1667 21.1533 21.4684 22.2134 21.2513 22.4501C20.9442 22.7866 20.4004 22.5108 20.4004 22.5108C20.4004 22.5108 16.3202 21.1885 14.1237 17.0418C13.9828 16.7758 14.1237 16.5645 14.1237 16.5645L15.4694 14.8609C15.4694 14.8609 15.7276 14.4169 15.53 13.965C15.3325 13.5132 13.8557 10.1391 13.8557 10.1391C13.8557 10.1391 13.6386 9.74988 13.2885 9.74988H12.0327C12.0327 9.74988 11.0097 9.7577 9.82049 11.8428C7.89188 16.3259 13.1985 21.4076 13.1985 21.4076C13.1985 21.4076 17.1183 26.0139 22.554 26.7494C25.5349 27.1523 26.9471 25.2628 26.9471 25.2628C27.3051 24.9342 28.285 22.4756 27.3364 22.1254C26.6166 21.8594 24.4924 20.809 23.5105 20.3181L23.5085 20.3142Z" fill="#1D2931"/>
</svg>
