<svg width="374" height="65" viewBox="0 0 374 65" fill="none" xmlns="http://www.w3.org/2000/svg">
<rect y="0.000244141" width="374" height="65" rx="32.5" fill="#F15F79"/>
<path d="M115.156 50.7955L117.287 40.9921C115.79 38.3183 115 35.2924 115 32.2058C115 27.398 116.872 22.8777 120.271 19.4782C123.673 16.0767 128.193 14.2048 133.001 14.2048C137.809 14.2048 142.329 16.0767 145.729 19.4762C149.128 22.8757 151 27.396 151 32.2039C151 37.0117 149.128 41.532 145.729 44.9315C142.329 48.331 137.809 50.2029 133.001 50.2029C130.042 50.2029 127.127 49.4753 124.533 48.0904L115.156 50.7955ZM124.886 45.0977L125.398 45.3931C127.698 46.7212 130.327 47.4234 132.999 47.4234C141.392 47.4234 148.221 40.5951 148.221 32.2019C148.221 23.8087 141.392 16.9843 133.001 16.9843C124.61 16.9843 117.779 23.8127 117.779 32.2058C117.779 34.9755 118.531 37.6865 119.951 40.0454L120.236 40.5188L118.863 46.8366L124.888 45.0997L124.886 45.0977Z" fill="white"/>
<path d="M138.009 34.3143C137.713 34.1676 137.355 34.2498 137.156 34.5119C136.667 35.1534 135.968 36.2136 135.751 36.4502C135.444 36.7867 134.9 36.5109 134.9 36.5109C134.9 36.5109 130.82 35.1886 128.624 31.0419C128.483 30.7759 128.624 30.5647 128.624 30.5647L129.969 28.861C129.969 28.861 130.228 28.417 130.03 27.9652C129.832 27.5133 128.356 24.1392 128.356 24.1392C128.356 24.1392 128.139 23.75 127.788 23.75H126.533C126.533 23.75 125.51 23.7578 124.32 25.8429C122.392 30.326 127.698 35.4077 127.698 35.4077C127.698 35.4077 131.618 40.0141 137.054 40.7495C140.035 41.1524 141.447 39.263 141.447 39.263C141.805 38.9344 142.785 36.4757 141.836 36.1256C141.117 35.8595 138.992 34.8092 138.01 34.3182L138.009 34.3143Z" fill="white"/>
<path d="M175.191 38.5002L171.479 27.3002H173.639L176.951 37.4282H175.879L179.319 27.3002H181.239L184.583 37.4282H183.543L186.935 27.3002H188.919L185.207 38.5002H182.999L179.943 29.3642H180.519L177.415 38.5002H175.191ZM195.504 29.8602C196.186 29.8602 196.794 29.9936 197.328 30.2602C197.872 30.5269 198.298 30.9376 198.608 31.4922C198.917 32.0362 199.072 32.7402 199.072 33.6042V38.5002H197.072V33.8602C197.072 33.1029 196.89 32.5376 196.528 32.1642C196.176 31.7909 195.68 31.6042 195.04 31.6042C194.57 31.6042 194.154 31.7002 193.792 31.8922C193.429 32.0842 193.146 32.3722 192.944 32.7562C192.752 33.1296 192.656 33.6042 192.656 34.1802V38.5002H190.656V26.6282H192.656V32.2602L192.224 31.5562C192.522 31.0122 192.954 30.5962 193.52 30.3082C194.096 30.0096 194.757 29.8602 195.504 29.8602ZM206.873 38.5002V36.7722L206.761 36.4042V33.3802C206.761 32.7936 206.585 32.3402 206.233 32.0202C205.881 31.6896 205.348 31.5242 204.633 31.5242C204.153 31.5242 203.678 31.5989 203.209 31.7482C202.75 31.8976 202.361 32.1056 202.041 32.3722L201.257 30.9162C201.716 30.5642 202.26 30.3029 202.889 30.1322C203.529 29.9509 204.19 29.8602 204.873 29.8602C206.11 29.8602 207.065 30.1589 207.737 30.7562C208.42 31.3429 208.761 32.2549 208.761 33.4922V38.5002H206.873ZM204.185 38.6122C203.545 38.6122 202.985 38.5056 202.505 38.2922C202.025 38.0682 201.652 37.7642 201.385 37.3802C201.129 36.9856 201.001 36.5429 201.001 36.0522C201.001 35.5722 201.113 35.1402 201.337 34.7562C201.572 34.3722 201.95 34.0682 202.473 33.8442C202.996 33.6202 203.689 33.5082 204.553 33.5082H207.033V34.8362H204.697C204.014 34.8362 203.556 34.9482 203.321 35.1722C203.086 35.3856 202.969 35.6522 202.969 35.9722C202.969 36.3349 203.113 36.6229 203.401 36.8362C203.689 37.0496 204.089 37.1562 204.601 37.1562C205.092 37.1562 205.529 37.0442 205.913 36.8202C206.308 36.5962 206.59 36.2656 206.761 35.8282L207.097 37.0282C206.905 37.5296 206.558 37.9189 206.057 38.1962C205.566 38.4736 204.942 38.6122 204.185 38.6122ZM214.544 38.6122C213.605 38.6122 212.88 38.3722 212.368 37.8922C211.856 37.4016 211.6 36.6816 211.6 35.7322V28.0682H213.6V35.6842C213.6 36.0896 213.701 36.4042 213.904 36.6282C214.117 36.8522 214.41 36.9642 214.784 36.9642C215.232 36.9642 215.605 36.8469 215.904 36.6122L216.464 38.0362C216.229 38.2282 215.941 38.3722 215.6 38.4682C215.258 38.5642 214.906 38.6122 214.544 38.6122ZM210.192 31.6202V30.0202H215.888V31.6202H210.192ZM220.749 38.6122C220.034 38.6122 219.346 38.5216 218.685 38.3402C218.034 38.1482 217.517 37.9189 217.133 37.6522L217.901 36.1322C218.285 36.3776 218.744 36.5802 219.277 36.7402C219.81 36.9002 220.344 36.9802 220.877 36.9802C221.506 36.9802 221.96 36.8949 222.237 36.7242C222.525 36.5536 222.669 36.3242 222.669 36.0362C222.669 35.8016 222.573 35.6256 222.381 35.5082C222.189 35.3802 221.938 35.2842 221.629 35.2202C221.32 35.1562 220.973 35.0976 220.589 35.0442C220.216 34.9909 219.837 34.9216 219.453 34.8362C219.08 34.7402 218.738 34.6069 218.429 34.4362C218.12 34.2549 217.869 34.0149 217.677 33.7162C217.485 33.4176 217.389 33.0229 217.389 32.5322C217.389 31.9882 217.544 31.5189 217.853 31.1242C218.162 30.7189 218.594 30.4096 219.149 30.1962C219.714 29.9722 220.381 29.8602 221.149 29.8602C221.725 29.8602 222.306 29.9242 222.893 30.0522C223.48 30.1802 223.965 30.3616 224.349 30.5962L223.581 32.1162C223.176 31.8709 222.765 31.7056 222.349 31.6202C221.944 31.5242 221.538 31.4762 221.133 31.4762C220.525 31.4762 220.072 31.5669 219.773 31.7482C219.485 31.9296 219.341 32.1589 219.341 32.4362C219.341 32.6922 219.437 32.8842 219.629 33.0122C219.821 33.1402 220.072 33.2416 220.381 33.3162C220.69 33.3909 221.032 33.4549 221.405 33.5082C221.789 33.5509 222.168 33.6202 222.541 33.7162C222.914 33.8122 223.256 33.9456 223.565 34.1162C223.885 34.2762 224.141 34.5056 224.333 34.8042C224.525 35.1029 224.621 35.4922 224.621 35.9722C224.621 36.5056 224.461 36.9696 224.141 37.3642C223.832 37.7589 223.389 38.0682 222.813 38.2922C222.237 38.5056 221.549 38.6122 220.749 38.6122ZM224.951 38.5002L229.991 27.3002H232.039L237.095 38.5002H234.919L230.583 28.4042H231.415L227.095 38.5002H224.951ZM227.271 35.9082L227.831 34.2762H233.879L234.439 35.9082H227.271ZM243.064 38.6122C242.37 38.6122 241.736 38.4522 241.16 38.1322C240.594 37.8122 240.141 37.3322 239.8 36.6922C239.469 36.0416 239.304 35.2202 239.304 34.2282C239.304 33.2256 239.464 32.4042 239.784 31.7642C240.114 31.1242 240.562 30.6496 241.128 30.3402C241.693 30.0202 242.338 29.8602 243.064 29.8602C243.906 29.8602 244.648 30.0416 245.288 30.4042C245.938 30.7669 246.45 31.2736 246.824 31.9242C247.208 32.5749 247.4 33.3429 247.4 34.2282C247.4 35.1136 247.208 35.8869 246.824 36.5482C246.45 37.1989 245.938 37.7056 245.288 38.0682C244.648 38.4309 243.906 38.6122 243.064 38.6122ZM238.328 41.6042V29.9562H240.232V31.9722L240.168 34.2442L240.328 36.5162V41.6042H238.328ZM242.84 36.9002C243.32 36.9002 243.746 36.7936 244.12 36.5802C244.504 36.3669 244.808 36.0576 245.032 35.6522C245.256 35.2469 245.368 34.7722 245.368 34.2282C245.368 33.6736 245.256 33.1989 245.032 32.8042C244.808 32.3989 244.504 32.0896 244.12 31.8762C243.746 31.6629 243.32 31.5562 242.84 31.5562C242.36 31.5562 241.928 31.6629 241.544 31.8762C241.16 32.0896 240.856 32.3989 240.632 32.8042C240.408 33.1989 240.296 33.6736 240.296 34.2282C240.296 34.7722 240.408 35.2469 240.632 35.6522C240.856 36.0576 241.16 36.3669 241.544 36.5802C241.928 36.7936 242.36 36.9002 242.84 36.9002ZM254.032 38.6122C253.339 38.6122 252.704 38.4522 252.128 38.1322C251.563 37.8122 251.11 37.3322 250.768 36.6922C250.438 36.0416 250.272 35.2202 250.272 34.2282C250.272 33.2256 250.432 32.4042 250.752 31.7642C251.083 31.1242 251.531 30.6496 252.096 30.3402C252.662 30.0202 253.307 29.8602 254.032 29.8602C254.875 29.8602 255.616 30.0416 256.256 30.4042C256.907 30.7669 257.419 31.2736 257.792 31.9242C258.176 32.5749 258.368 33.3429 258.368 34.2282C258.368 35.1136 258.176 35.8869 257.792 36.5482C257.419 37.1989 256.907 37.7056 256.256 38.0682C255.616 38.4309 254.875 38.6122 254.032 38.6122ZM249.296 41.6042V29.9562H251.2V31.9722L251.136 34.2442L251.296 36.5162V41.6042H249.296ZM253.808 36.9002C254.288 36.9002 254.715 36.7936 255.088 36.5802C255.472 36.3669 255.776 36.0576 256 35.6522C256.224 35.2469 256.336 34.7722 256.336 34.2282C256.336 33.6736 256.224 33.1989 256 32.8042C255.776 32.3989 255.472 32.0896 255.088 31.8762C254.715 31.6629 254.288 31.5562 253.808 31.5562C253.328 31.5562 252.896 31.6629 252.512 31.8762C252.128 32.0896 251.824 32.3989 251.6 32.8042C251.376 33.1989 251.264 33.6736 251.264 34.2282C251.264 34.7722 251.376 35.2469 251.6 35.6522C251.824 36.0576 252.128 36.3669 252.512 36.5802C252.896 36.7936 253.328 36.9002 253.808 36.9002Z" fill="white"/>
</svg>
