<svg width="328" height="55" viewBox="0 0 328 55" fill="none" xmlns="http://www.w3.org/2000/svg">
<rect width="328" height="55" rx="27.5" fill="#F15F79"/>
<path d="M92.1565 45.7953L94.2866 35.9919C92.7902 33.318 92 30.2921 92 27.2056C92 22.3977 93.8719 17.8774 97.2714 14.4779C100.673 11.0765 105.193 9.20459 110.001 9.20459C114.809 9.20459 119.329 11.0765 122.729 14.476C126.128 17.8755 128 22.3958 128 27.2036C128 32.0114 126.128 36.5317 122.729 39.9312C119.329 43.3307 114.809 45.2026 110.001 45.2026C107.042 45.2026 104.127 44.475 101.533 43.0902L92.1565 45.7953ZM101.886 40.0975L102.398 40.3929C104.698 41.721 107.327 42.4232 109.999 42.4232C118.392 42.4232 125.221 35.5948 125.221 27.2017C125.221 18.8085 118.392 11.9841 110.001 11.9841C101.61 11.9841 94.7795 18.8124 94.7795 27.2056C94.7795 29.9753 95.5306 32.6863 96.9506 35.0452L97.2362 35.5185L95.8631 41.8364L101.888 40.0995L101.886 40.0975Z" fill="white"/>
<path d="M115.009 29.3141C114.713 29.1674 114.355 29.2495 114.156 29.5116C113.667 30.1532 112.968 31.2133 112.751 31.45C112.444 31.7864 111.9 31.5106 111.9 31.5106C111.9 31.5106 107.82 30.1884 105.624 26.0417C105.483 25.7757 105.624 25.5644 105.624 25.5644L106.969 23.8608C106.969 23.8608 107.228 23.4167 107.03 22.9649C106.832 22.5131 105.356 19.139 105.356 19.139C105.356 19.139 105.139 18.7498 104.788 18.7498H103.533C103.533 18.7498 102.51 18.7576 101.32 20.8427C99.3919 25.3258 104.698 30.4075 104.698 30.4075C104.698 30.4075 108.618 35.0138 114.054 35.7493C117.035 36.1522 118.447 34.2627 118.447 34.2627C118.805 33.9341 119.785 31.4754 118.836 31.1253C118.117 30.8593 115.992 29.8089 115.01 29.318L115.009 29.3141Z" fill="white"/>
<path d="M152.191 33.5L148.479 22.3H150.639L153.951 32.428H152.879L156.319 22.3H158.239L161.583 32.428H160.543L163.935 22.3H165.919L162.207 33.5H159.999L156.943 24.364H157.519L154.415 33.5H152.191ZM172.504 24.86C173.186 24.86 173.794 24.9933 174.328 25.26C174.872 25.5267 175.298 25.9373 175.608 26.492C175.917 27.036 176.072 27.74 176.072 28.604V33.5H174.072V28.86C174.072 28.1027 173.89 27.5373 173.528 27.164C173.176 26.7907 172.68 26.604 172.04 26.604C171.57 26.604 171.154 26.7 170.792 26.892C170.429 27.084 170.146 27.372 169.944 27.756C169.752 28.1293 169.656 28.604 169.656 29.18V33.5H167.656V21.628H169.656V27.26L169.224 26.556C169.522 26.012 169.954 25.596 170.52 25.308C171.096 25.0093 171.757 24.86 172.504 24.86ZM183.873 33.5V31.772L183.761 31.404V28.38C183.761 27.7933 183.585 27.34 183.233 27.02C182.881 26.6893 182.348 26.524 181.633 26.524C181.153 26.524 180.678 26.5987 180.209 26.748C179.75 26.8973 179.361 27.1053 179.041 27.372L178.257 25.916C178.716 25.564 179.26 25.3027 179.889 25.132C180.529 24.9507 181.19 24.86 181.873 24.86C183.11 24.86 184.065 25.1587 184.737 25.756C185.42 26.3427 185.761 27.2547 185.761 28.492V33.5H183.873ZM181.185 33.612C180.545 33.612 179.985 33.5053 179.505 33.292C179.025 33.068 178.652 32.764 178.385 32.38C178.129 31.9853 178.001 31.5427 178.001 31.052C178.001 30.572 178.113 30.14 178.337 29.756C178.572 29.372 178.95 29.068 179.473 28.844C179.996 28.62 180.689 28.508 181.553 28.508H184.033V29.836H181.697C181.014 29.836 180.556 29.948 180.321 30.172C180.086 30.3853 179.969 30.652 179.969 30.972C179.969 31.3347 180.113 31.6227 180.401 31.836C180.689 32.0493 181.089 32.156 181.601 32.156C182.092 32.156 182.529 32.044 182.913 31.82C183.308 31.596 183.59 31.2653 183.761 30.828L184.097 32.028C183.905 32.5293 183.558 32.9187 183.057 33.196C182.566 33.4733 181.942 33.612 181.185 33.612ZM191.544 33.612C190.605 33.612 189.88 33.372 189.368 32.892C188.856 32.4013 188.6 31.6813 188.6 30.732V23.068H190.6V30.684C190.6 31.0893 190.701 31.404 190.904 31.628C191.117 31.852 191.41 31.964 191.784 31.964C192.232 31.964 192.605 31.8467 192.904 31.612L193.464 33.036C193.229 33.228 192.941 33.372 192.6 33.468C192.258 33.564 191.906 33.612 191.544 33.612ZM187.192 26.62V25.02H192.888V26.62H187.192ZM197.749 33.612C197.034 33.612 196.346 33.5213 195.685 33.34C195.034 33.148 194.517 32.9187 194.133 32.652L194.901 31.132C195.285 31.3773 195.744 31.58 196.277 31.74C196.81 31.9 197.344 31.98 197.877 31.98C198.506 31.98 198.96 31.8947 199.237 31.724C199.525 31.5533 199.669 31.324 199.669 31.036C199.669 30.8013 199.573 30.6253 199.381 30.508C199.189 30.38 198.938 30.284 198.629 30.22C198.32 30.156 197.973 30.0973 197.589 30.044C197.216 29.9907 196.837 29.9213 196.453 29.836C196.08 29.74 195.738 29.6067 195.429 29.436C195.12 29.2547 194.869 29.0147 194.677 28.716C194.485 28.4173 194.389 28.0227 194.389 27.532C194.389 26.988 194.544 26.5187 194.853 26.124C195.162 25.7187 195.594 25.4093 196.149 25.196C196.714 24.972 197.381 24.86 198.149 24.86C198.725 24.86 199.306 24.924 199.893 25.052C200.48 25.18 200.965 25.3613 201.349 25.596L200.581 27.116C200.176 26.8707 199.765 26.7053 199.349 26.62C198.944 26.524 198.538 26.476 198.133 26.476C197.525 26.476 197.072 26.5667 196.773 26.748C196.485 26.9293 196.341 27.1587 196.341 27.436C196.341 27.692 196.437 27.884 196.629 28.012C196.821 28.14 197.072 28.2413 197.381 28.316C197.69 28.3907 198.032 28.4547 198.405 28.508C198.789 28.5507 199.168 28.62 199.541 28.716C199.914 28.812 200.256 28.9453 200.565 29.116C200.885 29.276 201.141 29.5053 201.333 29.804C201.525 30.1027 201.621 30.492 201.621 30.972C201.621 31.5053 201.461 31.9693 201.141 32.364C200.832 32.7587 200.389 33.068 199.813 33.292C199.237 33.5053 198.549 33.612 197.749 33.612ZM201.951 33.5L206.991 22.3H209.039L214.095 33.5H211.919L207.583 23.404H208.415L204.095 33.5H201.951ZM204.271 30.908L204.831 29.276H210.879L211.439 30.908H204.271ZM220.064 33.612C219.37 33.612 218.736 33.452 218.16 33.132C217.594 32.812 217.141 32.332 216.8 31.692C216.469 31.0413 216.304 30.22 216.304 29.228C216.304 28.2253 216.464 27.404 216.784 26.764C217.114 26.124 217.562 25.6493 218.128 25.34C218.693 25.02 219.338 24.86 220.064 24.86C220.906 24.86 221.648 25.0413 222.288 25.404C222.938 25.7667 223.45 26.2733 223.824 26.924C224.208 27.5747 224.4 28.3427 224.4 29.228C224.4 30.1133 224.208 30.8867 223.824 31.548C223.45 32.1987 222.938 32.7053 222.288 33.068C221.648 33.4307 220.906 33.612 220.064 33.612ZM215.328 36.604V24.956H217.232V26.972L217.168 29.244L217.328 31.516V36.604H215.328ZM219.84 31.9C220.32 31.9 220.746 31.7933 221.12 31.58C221.504 31.3667 221.808 31.0573 222.032 30.652C222.256 30.2467 222.368 29.772 222.368 29.228C222.368 28.6733 222.256 28.1987 222.032 27.804C221.808 27.3987 221.504 27.0893 221.12 26.876C220.746 26.6627 220.32 26.556 219.84 26.556C219.36 26.556 218.928 26.6627 218.544 26.876C218.16 27.0893 217.856 27.3987 217.632 27.804C217.408 28.1987 217.296 28.6733 217.296 29.228C217.296 29.772 217.408 30.2467 217.632 30.652C217.856 31.0573 218.16 31.3667 218.544 31.58C218.928 31.7933 219.36 31.9 219.84 31.9ZM231.032 33.612C230.339 33.612 229.704 33.452 229.128 33.132C228.563 32.812 228.11 32.332 227.768 31.692C227.438 31.0413 227.272 30.22 227.272 29.228C227.272 28.2253 227.432 27.404 227.752 26.764C228.083 26.124 228.531 25.6493 229.096 25.34C229.662 25.02 230.307 24.86 231.032 24.86C231.875 24.86 232.616 25.0413 233.256 25.404C233.907 25.7667 234.419 26.2733 234.792 26.924C235.176 27.5747 235.368 28.3427 235.368 29.228C235.368 30.1133 235.176 30.8867 234.792 31.548C234.419 32.1987 233.907 32.7053 233.256 33.068C232.616 33.4307 231.875 33.612 231.032 33.612ZM226.296 36.604V24.956H228.2V26.972L228.136 29.244L228.296 31.516V36.604H226.296ZM230.808 31.9C231.288 31.9 231.715 31.7933 232.088 31.58C232.472 31.3667 232.776 31.0573 233 30.652C233.224 30.2467 233.336 29.772 233.336 29.228C233.336 28.6733 233.224 28.1987 233 27.804C232.776 27.3987 232.472 27.0893 232.088 26.876C231.715 26.6627 231.288 26.556 230.808 26.556C230.328 26.556 229.896 26.6627 229.512 26.876C229.128 27.0893 228.824 27.3987 228.6 27.804C228.376 28.1987 228.264 28.6733 228.264 29.228C228.264 29.772 228.376 30.2467 228.6 30.652C228.824 31.0573 229.128 31.3667 229.512 31.58C229.896 31.7933 230.328 31.9 230.808 31.9Z" fill="white"/>
</svg>
