<svg width="273" height="65" viewBox="0 0 273 65" fill="none" xmlns="http://www.w3.org/2000/svg">
<path d="M64.6565 50.7954L66.7866 40.9919C65.2902 38.3181 64.5 35.2922 64.5 32.2056C64.5 27.3978 66.3719 22.8775 69.7714 19.478C73.1729 16.0765 77.6932 14.2047 82.501 14.2047C87.3088 14.2047 91.8291 16.0765 95.2286 19.476C98.6281 22.8756 100.5 27.3958 100.5 32.2037C100.5 37.0115 98.6281 41.5318 95.2286 44.9313C91.8291 48.3308 87.3088 50.2027 82.501 50.2027C79.5416 50.2027 76.6271 49.4751 74.0335 48.0902L64.6565 50.7954ZM74.3856 45.0976L74.898 45.3929C77.1983 46.721 79.8271 47.4232 82.499 47.4232C90.8922 47.4232 97.7205 40.5949 97.7205 32.2017C97.7205 23.8086 90.8922 16.9841 82.501 16.9841C74.1098 16.9841 67.2795 23.8125 67.2795 32.2056C67.2795 34.9753 68.0306 37.6863 69.4506 40.0452L69.7362 40.5186L68.3631 46.8364L74.3875 45.0995L74.3856 45.0976Z" fill="#1D2931"/>
<path d="M87.5085 34.3142C87.2132 34.1675 86.8552 34.2496 86.6557 34.5117C86.1667 35.1533 85.4684 36.2134 85.2513 36.4501C84.9442 36.7866 84.4004 36.5108 84.4004 36.5108C84.4004 36.5108 80.3202 35.1885 78.1237 31.0418C77.9828 30.7758 78.1237 30.5645 78.1237 30.5645L79.4694 28.8609C79.4694 28.8609 79.7276 28.4169 79.53 27.965C79.3325 27.5132 77.8557 24.1391 77.8557 24.1391C77.8557 24.1391 77.6386 23.7499 77.2885 23.7499H76.0327C76.0327 23.7499 75.0097 23.7577 73.8205 25.8428C71.8919 30.3259 77.1985 35.4076 77.1985 35.4076C77.1985 35.4076 81.1183 40.0139 86.554 40.7494C89.5349 41.1523 90.9471 39.2628 90.9471 39.2628C91.3051 38.9342 92.285 36.4756 91.3364 36.1254C90.6166 35.8594 88.4924 34.809 87.5105 34.3181L87.5085 34.3142Z" fill="#1D2931"/>
<path d="M124.691 38.5L120.979 27.3H123.139L126.451 37.428H125.379L128.819 27.3H130.739L134.083 37.428H133.043L136.435 27.3H138.419L134.707 38.5H132.499L129.443 29.364H130.019L126.915 38.5H124.691ZM145.004 29.86C145.686 29.86 146.294 29.9933 146.828 30.26C147.372 30.5267 147.798 30.9373 148.108 31.492C148.417 32.036 148.572 32.74 148.572 33.604V38.5H146.572V33.86C146.572 33.1027 146.39 32.5373 146.028 32.164C145.676 31.7907 145.18 31.604 144.54 31.604C144.07 31.604 143.654 31.7 143.292 31.892C142.929 32.084 142.646 32.372 142.444 32.756C142.252 33.1293 142.156 33.604 142.156 34.18V38.5H140.156V26.628H142.156V32.26L141.724 31.556C142.022 31.012 142.454 30.596 143.02 30.308C143.596 30.0093 144.257 29.86 145.004 29.86ZM156.373 38.5V36.772L156.261 36.404V33.38C156.261 32.7933 156.085 32.34 155.733 32.02C155.381 31.6893 154.848 31.524 154.133 31.524C153.653 31.524 153.178 31.5987 152.709 31.748C152.25 31.8973 151.861 32.1053 151.541 32.372L150.757 30.916C151.216 30.564 151.76 30.3027 152.389 30.132C153.029 29.9507 153.69 29.86 154.373 29.86C155.61 29.86 156.565 30.1587 157.237 30.756C157.92 31.3427 158.261 32.2547 158.261 33.492V38.5H156.373ZM153.685 38.612C153.045 38.612 152.485 38.5053 152.005 38.292C151.525 38.068 151.152 37.764 150.885 37.38C150.629 36.9853 150.501 36.5427 150.501 36.052C150.501 35.572 150.613 35.14 150.837 34.756C151.072 34.372 151.45 34.068 151.973 33.844C152.496 33.62 153.189 33.508 154.053 33.508H156.533V34.836H154.197C153.514 34.836 153.056 34.948 152.821 35.172C152.586 35.3853 152.469 35.652 152.469 35.972C152.469 36.3347 152.613 36.6227 152.901 36.836C153.189 37.0493 153.589 37.156 154.101 37.156C154.592 37.156 155.029 37.044 155.413 36.82C155.808 36.596 156.09 36.2653 156.261 35.828L156.597 37.028C156.405 37.5293 156.058 37.9187 155.557 38.196C155.066 38.4733 154.442 38.612 153.685 38.612ZM164.044 38.612C163.105 38.612 162.38 38.372 161.868 37.892C161.356 37.4013 161.1 36.6813 161.1 35.732V28.068H163.1V35.684C163.1 36.0893 163.201 36.404 163.404 36.628C163.617 36.852 163.91 36.964 164.284 36.964C164.732 36.964 165.105 36.8467 165.404 36.612L165.964 38.036C165.729 38.228 165.441 38.372 165.1 38.468C164.758 38.564 164.406 38.612 164.044 38.612ZM159.692 31.62V30.02H165.388V31.62H159.692ZM170.249 38.612C169.534 38.612 168.846 38.5213 168.185 38.34C167.534 38.148 167.017 37.9187 166.633 37.652L167.401 36.132C167.785 36.3773 168.244 36.58 168.777 36.74C169.31 36.9 169.844 36.98 170.377 36.98C171.006 36.98 171.46 36.8947 171.737 36.724C172.025 36.5533 172.169 36.324 172.169 36.036C172.169 35.8013 172.073 35.6253 171.881 35.508C171.689 35.38 171.438 35.284 171.129 35.22C170.82 35.156 170.473 35.0973 170.089 35.044C169.716 34.9907 169.337 34.9213 168.953 34.836C168.58 34.74 168.238 34.6067 167.929 34.436C167.62 34.2547 167.369 34.0147 167.177 33.716C166.985 33.4173 166.889 33.0227 166.889 32.532C166.889 31.988 167.044 31.5187 167.353 31.124C167.662 30.7187 168.094 30.4093 168.649 30.196C169.214 29.972 169.881 29.86 170.649 29.86C171.225 29.86 171.806 29.924 172.393 30.052C172.98 30.18 173.465 30.3613 173.849 30.596L173.081 32.116C172.676 31.8707 172.265 31.7053 171.849 31.62C171.444 31.524 171.038 31.476 170.633 31.476C170.025 31.476 169.572 31.5667 169.273 31.748C168.985 31.9293 168.841 32.1587 168.841 32.436C168.841 32.692 168.937 32.884 169.129 33.012C169.321 33.14 169.572 33.2413 169.881 33.316C170.19 33.3907 170.532 33.4547 170.905 33.508C171.289 33.5507 171.668 33.62 172.041 33.716C172.414 33.812 172.756 33.9453 173.065 34.116C173.385 34.276 173.641 34.5053 173.833 34.804C174.025 35.1027 174.121 35.492 174.121 35.972C174.121 36.5053 173.961 36.9693 173.641 37.364C173.332 37.7587 172.889 38.068 172.313 38.292C171.737 38.5053 171.049 38.612 170.249 38.612ZM174.451 38.5L179.491 27.3H181.539L186.595 38.5H184.419L180.083 28.404H180.915L176.595 38.5H174.451ZM176.771 35.908L177.331 34.276H183.379L183.939 35.908H176.771ZM192.564 38.612C191.87 38.612 191.236 38.452 190.66 38.132C190.094 37.812 189.641 37.332 189.3 36.692C188.969 36.0413 188.804 35.22 188.804 34.228C188.804 33.2253 188.964 32.404 189.284 31.764C189.614 31.124 190.062 30.6493 190.628 30.34C191.193 30.02 191.838 29.86 192.564 29.86C193.406 29.86 194.148 30.0413 194.788 30.404C195.438 30.7667 195.95 31.2733 196.324 31.924C196.708 32.5747 196.9 33.3427 196.9 34.228C196.9 35.1133 196.708 35.8867 196.324 36.548C195.95 37.1987 195.438 37.7053 194.788 38.068C194.148 38.4307 193.406 38.612 192.564 38.612ZM187.828 41.604V29.956H189.732V31.972L189.668 34.244L189.828 36.516V41.604H187.828ZM192.34 36.9C192.82 36.9 193.246 36.7933 193.62 36.58C194.004 36.3667 194.308 36.0573 194.532 35.652C194.756 35.2467 194.868 34.772 194.868 34.228C194.868 33.6733 194.756 33.1987 194.532 32.804C194.308 32.3987 194.004 32.0893 193.62 31.876C193.246 31.6627 192.82 31.556 192.34 31.556C191.86 31.556 191.428 31.6627 191.044 31.876C190.66 32.0893 190.356 32.3987 190.132 32.804C189.908 33.1987 189.796 33.6733 189.796 34.228C189.796 34.772 189.908 35.2467 190.132 35.652C190.356 36.0573 190.66 36.3667 191.044 36.58C191.428 36.7933 191.86 36.9 192.34 36.9ZM203.532 38.612C202.839 38.612 202.204 38.452 201.628 38.132C201.063 37.812 200.61 37.332 200.268 36.692C199.938 36.0413 199.772 35.22 199.772 34.228C199.772 33.2253 199.932 32.404 200.252 31.764C200.583 31.124 201.031 30.6493 201.596 30.34C202.162 30.02 202.807 29.86 203.532 29.86C204.375 29.86 205.116 30.0413 205.756 30.404C206.407 30.7667 206.919 31.2733 207.292 31.924C207.676 32.5747 207.868 33.3427 207.868 34.228C207.868 35.1133 207.676 35.8867 207.292 36.548C206.919 37.1987 206.407 37.7053 205.756 38.068C205.116 38.4307 204.375 38.612 203.532 38.612ZM198.796 41.604V29.956H200.7V31.972L200.636 34.244L200.796 36.516V41.604H198.796ZM203.308 36.9C203.788 36.9 204.215 36.7933 204.588 36.58C204.972 36.3667 205.276 36.0573 205.5 35.652C205.724 35.2467 205.836 34.772 205.836 34.228C205.836 33.6733 205.724 33.1987 205.5 32.804C205.276 32.3987 204.972 32.0893 204.588 31.876C204.215 31.6627 203.788 31.556 203.308 31.556C202.828 31.556 202.396 31.6627 202.012 31.876C201.628 32.0893 201.324 32.3987 201.1 32.804C200.876 33.1987 200.764 33.6733 200.764 34.228C200.764 34.772 200.876 35.2467 201.1 35.652C201.324 36.0573 201.628 36.3667 202.012 36.58C202.396 36.7933 202.828 36.9 203.308 36.9Z" fill="#1D2931"/>
<rect x="1" y="1" width="271" height="63" rx="31.5" stroke="#1D2931" stroke-width="2"/>
</svg>
