<svg width="712" height="35" viewBox="0 0 712 35" fill="none" xmlns="http://www.w3.org/2000/svg">
<path d="M131.57 33.8587L147.99 14.5987C148.14 14.4187 148.37 14.3187 148.6 14.3187H711.794C712.244 14.3187 712.604 13.9587 712.604 13.5087V11.1187C712.604 10.6687 712.244 10.3087 711.794 10.3087H146.76C146.52 10.3087 146.3 10.4087 146.15 10.5887L131.82 27.3987C131.48 27.7987 130.86 27.7687 130.56 27.3487L110.75 0.328701C110.45 -0.0812987 109.85 -0.111299 109.5 0.258701L100.54 10.0487C100.39 10.2187 100.17 10.3087 99.9502 10.3087H42.3802C41.9302 10.3087 41.5702 10.6687 41.5702 11.1187V13.5087C41.5702 13.9587 41.9302 14.3187 42.3802 14.3187H101.71C101.94 14.3187 102.15 14.2187 102.3 14.0587L109.15 6.5687C109.49 6.1887 110.09 6.2287 110.4 6.6387L130.3 33.8187C130.61 34.2387 131.23 34.2587 131.56 33.8687L131.57 33.8587Z" fill="white"/>
<path d="M13.71 10.3188H32.19C32.6374 10.3188 33 10.6815 33 11.1288V13.5088C33 13.9562 32.6374 14.3188 32.19 14.3188H13.71C13.2627 14.3188 12.9 13.9562 12.9 13.5088V11.1288C12.9 10.6815 13.2627 10.3188 13.71 10.3188Z" fill="white"/>
<path d="M0.810013 10.3188H3.19C3.63735 10.3188 4 10.6815 4 11.1288V13.5088C4 13.9562 3.63735 14.3188 3.19 14.3188H0.810013C0.362662 14.3188 0 13.9562 0 13.5088V11.1288C0 10.6815 0.362662 10.3188 0.810013 10.3188Z" fill="white"/>
</svg>
